nColumns=19
nRows=78
DataType=double
version=3
OpenSimVersion=4.1
endheader
time	ground_force_calcn_r_vx	ground_force_calcn_r_vy	ground_force_calcn_r_vz	ground_force_calcn_r_px	ground_force_calcn_r_py	ground_force_calcn_r_pz	ground_force_calcn_r_mx	ground_force_calcn_r_my	ground_force_calcn_r_mz	ground_force_calcn_l_vx	ground_force_calcn_l_vy	ground_force_calcn_l_vz	ground_force_calcn_l_px	ground_force_calcn_l_py	ground_force_calcn_l_pz	ground_force_calcn_l_mx	ground_force_calcn_l_my	ground_force_calcn_l_mz
1.88	0.00690906	0.011965	-0.0618422	-0.000463401	0	-0.000165971	-4.61772e-23	-7.99691e-23	4.13327e-22	-4.58247	7.86064	5.40729	0.731482	0	-0.774822	-1.33415	2.28857	1.57429
1.89	-0.00502499	-0.00355243	-0.11455	-0.000463401	0	-0.000165971	8.70347e-26	6.15295e-26	1.98405e-24	-19.2248	35.9189	13.9921	0.902015	0	-0.655997	-1.782	3.32943	1.29697
1.9	-0.0844161	-0.0645464	-0.298999	-0.000463401	0	-0.000165971	-9.01335e-22	-6.8918e-22	-3.1925e-21	-53.5831	115.696	29.9482	0.935998	0	-0.620851	-1.78166	3.84692	0.995788
1.91	-0.615216	-0.418569	-0.642932	-0.000463401	0	-0.000165971	5.7639e-21	3.92154e-21	6.02357e-21	-95.3158	261.85	52.0576	0.94309	0	-0.608349	-1.44669	3.97432	0.790122
1.92	-2.23054	-1.18241	-0.945686	-0.000463401	0	-0.000165971	-1.94469e-20	-1.03088e-20	-8.24492e-21	-107.965	444.878	73.3117	0.933717	0	-0.601457	-0.939346	3.87063	0.637844
1.93	-2.87224	-0.258767	-0.691871	-0.000463401	0	-0.000165971	-0	-0	-0	-86.9014	638.348	87.3594	0.907821	0	-0.597402	-0.499149	3.66658	0.50178
1.94	0.893706	3.90971	0.176607	-0.000463401	0	-0.000165971	7.72814e-21	3.38084e-20	1.52718e-21	-74.4603	844.5	97.5298	0.880613	0	-0.595312	-0.309811	3.51376	0.405797
1.95	1.51518	5.23405	0.467763	0.193249	0	0.0561933	0.12262	0.423577	0.0378547	-90.2728	1055.92	110.651	0.865594	0	-0.593018	-0.301236	3.52354	0.369238
1.96	-4.10454	1.41633	-0.557991	-0.000463401	0	-0.000165971	1.1683e-20	-4.03139e-21	1.58824e-21	-111.397	1253.13	123.355	0.854369	0	-0.589987	-0.330083	3.71316	0.365517
1.97	-3.84094	0.702583	-1.29091	-0.000463401	0	-0.000165971	1.72097e-20	-3.14798e-21	5.78402e-21	-112.508	1427.6	127.797	0.836297	0	-0.587709	-0.315654	4.00531	0.358551
1.98	1.92522	5.24926	-0.307509	0.0413895	0	0.0687956	0.00982436	0.0267869	-0.00156921	-99.4872	1577.88	127.159	0.815753	0	-0.586511	-0.264455	4.1943	0.338012
1.99	0.78197	6.65679	0.703784	0.210267	0	0.0729762	-0.0121143	-0.103127	-0.010903	-90.4883	1691.98	130.994	0.799971	0	-0.585397	-0.215975	4.03839	0.312652
2	-3.2379	3.73184	-0.132065	-0.000463401	0	-0.000165971	-4.82862e-20	5.56521e-20	-1.96946e-21	-81.7647	1758.24	140.724	0.786045	0	-0.584494	-0.159241	3.42426	0.274067
2.01	-0.608178	3.11943	-1.35238	-0.000463401	0	-0.000165971	-3.81818e-20	1.9584e-19	-8.49032e-20	-62.4895	1780.5	151.408	0.769539	0	-0.584382	-0.0854838	2.43567	0.207122
2.02	0.842118	4.74574	-1.09728	-0.000463401	0	-0.000165971	-1.84703e-20	-1.04089e-19	2.4067e-20	-39.0197	1769.28	160.452	0.752656	0	-0.584525	-0.0289154	1.31112	0.118902
2.03	-2.68221	4.7358	-0.566757	-0.000463401	0	-0.000165971	-0	0	-0	-17.3921	1729.74	165.957	0.737321	0	-0.584273	-0.00351601	0.349686	0.03355
2.04	-2.3478	3.84806	-1.20064	-0.000463401	0	-0.000165971	-0	0	-0	8.24626	1663.66	164.225	0.720852	0	-0.583872	-0.00102768	-0.207332	-0.0204664
2.05	1.07634	4.11634	-1.72767	-0.000463401	0	-0.000165971	2.97705e-20	1.13854e-19	-4.77854e-20	38.4806	1573.67	154.575	0.702473	0	-0.58347	-0.00657123	-0.268731	-0.0263963
2.06	0.433179	4.97039	-1.04203	-0.000463401	0	-0.000165971	1.25284e-20	1.43754e-19	-3.01378e-20	66.7368	1463.01	140.262	0.684738	0	-0.58273	0.00410827	0.0900618	0.00863441
2.07	-1.51882	5.268	-0.570418	0.163445	0	0.149818	0.0675283	-0.234221	0.0253614	91.465	1333	123.403	0.667403	0	-0.581651	0.0469976	0.68494	0.0634085
2.08	-0.0302217	5.05472	-1.20607	0.0738714	0	0.10148	0.00185853	-0.310847	0.0741689	112.706	1186.51	104.682	0.648563	0	-0.580522	0.124129	1.30677	0.115292
2.09	0.713886	5.35813	-1.45566	0.218421	0	0.0390956	-0.0536585	-0.402738	0.109413	126.632	1031.61	86.0324	0.630188	0	-0.579401	0.219924	1.79161	0.149413
2.1	-1.80269	5.57556	-0.576288	0.574845	0	0.0941488	0.166295	-0.514336	0.0531616	130.921	875.133	68.8406	0.614522	0	-0.578222	0.308725	2.06365	0.162333
2.11	-2.99364	4.90728	0.0251937	-0.000463401	0	-0.000165971	-5.58264e-20	9.15125e-20	4.69819e-22	127.362	719.864	52.5092	0.598971	0	-0.577173	0.377453	2.13341	0.155618
2.12	-1.76102	4.0863	-0.250127	-0.000463401	0	-0.000165971	-4.28419e-20	9.94107e-20	-6.08504e-21	117.313	571.684	37.2772	0.581742	0	-0.576435	0.423095	2.06181	0.134442
2.13	-2.08522	3.62323	-0.207274	-0.000463401	0	-0.000165971	1.46256e-20	-2.54131e-20	1.45381e-21	101.376	439.788	24.7613	0.567161	0	-0.575978	0.442924	1.92148	0.108185
2.14	-3.93116	3.433	0.509501	-0.000463401	0	-0.000165971	5.52542e-20	-4.82524e-20	-7.16126e-21	82.4949	327.748	15.0392	0.556597	0	-0.575889	0.443866	1.76345	0.080919
2.15	-3.72523	2.83903	0.7674	-0.000463401	0	-0.000165971	-5.78511e-20	4.40888e-20	1.19174e-20	64.0565	234.238	7.13934	0.542869	0	-0.576602	0.436373	1.5957	0.0486353
2.16	-2.18436	1.98224	0.26705	-0.000463401	0	-0.000165971	1.28012e-20	-1.16167e-20	-1.56501e-21	47.3767	160.165	1.68877	0.527869	0	-0.578002	0.410899	1.38911	0.0146467
2.17	-1.99042	1.34946	0.0449062	-0.000463401	0	-0.000165971	-1.49183e-20	1.01143e-20	3.36575e-22	33.4918	106.332	-0.608182	0.528741	0	-0.579689	0.34647	1.1	-0.0062916
2.18	-2.53059	2.10867	0.489036	-0.000463401	0	-0.000165971	-2.63797e-20	2.19815e-20	5.09789e-21	23.604	68.2958	-1.27949	0.543665	0	-0.583735	0.237658	0.687639	-0.0128826
2.19	-1.7797	3.03721	0.832249	-0.000463401	0	-0.000165971	-3.62636e-20	6.18868e-20	1.69581e-20	16.3739	40.2054	-1.79896	0.540308	0	-0.593979	0.063687	0.156381	-0.00699714
2.2	-0.811404	3.36154	0.539601	-0.000463401	0	-0.000165971	9.74134e-21	-4.03571e-20	-6.4782e-21	9.1327	20.9699	-1.54387	0.520408	0	-0.615311	-0.189374	-0.434829	0.0320134
2.21	-1.14714	3.14541	-0.258938	-0.000463401	0	-0.000165971	-0	0	-0	2.535	10.5097	-0.177044	0.564296	0	-0.638072	-0.284227	-1.17836	0.0198504
2.22	-2.09196	3.88175	-1.74139	-0.000463401	0	-0.000165971	-0	0	-0	-0.544257	5.39754	0.957895	0.642331	0	-0.579757	0.180328	-1.78836	-0.317378
2.23	-4.82225	9.6092	-5.01917	0.930552	0	-0.181998	0.810003	-1.61408	0.843081	-0.298934	2.61183	1.19972	-0.000463401	0	-0.000165971	1.68238e-20	-1.46992e-19	-6.75197e-20
2.24	-16.6416	34.2721	-11.815	0.926219	0	-0.279602	0.905588	-1.86499	0.642938	0.00420101	1.67305	1.35715	-0.000463401	0	-0.000165971	2.01045e-22	8.0066e-20	6.4948e-20
2.25	-43.664	105.566	-23.3341	0.938416	0	-0.30624	0.738465	-1.78538	0.394637	-0.392637	1.85525	1.65418	-0.000463401	0	-0.000165971	1.11665e-20	-5.27633e-20	-4.70447e-20
2.26	-72.8671	239.839	-38.5015	0.938201	0	-0.315554	0.416581	-1.37115	0.220113	0.107458	1.95251	1.43694	-0.000463401	0	-0.000165971	1.63195e-21	2.96524e-20	2.18225e-20
2.27	-77.7325	414.276	-53.6158	0.924015	0	-0.322361	0.145134	-0.773491	0.100106	0.655967	1.64068	0.659489	-0.000463401	0	-0.000165971	-0	-0	-0
2.28	-58.9485	603.884	-65.5496	0.901029	0	-0.328535	0.0225247	-0.230749	0.0250471	-0.383727	1.50188	-0.230458	-0.000463401	0	-0.000165971	-4.24994e-21	1.6634e-20	-2.55242e-21
2.29	-56.2081	803.474	-75.005	0.880029	0	-0.333463	-0.00651591	0.0931425	-0.00869493	0.663942	2.75008	-1.10696	-0.000463401	0	-0.000165971	-2.40719e-21	-9.97073e-21	4.01339e-21
2.3	-88.457	999.011	-84.4695	0.866894	0	-0.337543	-0.0184699	0.208594	-0.0176373	2.71138	3.21305	-1.57989	-0.000463401	0	-0.000165971	-1.5976e-19	-1.89319e-19	9.30905e-20
2.31	-131.686	1176.59	-94.3191	0.856435	0	-0.341002	-0.0284315	0.25403	-0.0203638	0	0	0	0	0	0	0	0	0
2.32	-156.868	1336.32	-103.723	0.842879	0	-0.343203	-0.0488022	0.415735	-0.0322684	0	0	0	0	0	0	0	0	0
2.33	-153.398	1482.82	-114.255	0.825144	0	-0.343362	-0.117163	1.13256	-0.0872662	0	0	0	0	0	0	0	0	0
2.34	-135.982	1603.37	-126.392	0.809326	0	-0.343389	-0.151688	1.78856	-0.140991	0	0	0	0	0	0	0	0	0
2.35	-117.576	1690.18	-138.692	0.794142	0	-0.342882	-0.173625	2.49591	-0.204807	0	0	0	0	0	0	0	0	0
2.36	-96.8263	1740.16	-149.699	0.778477	0	-0.34202	-0.210764	3.78786	-0.325854	0	0	0	0	0	0	0	0	0
2.37	-73.3496	1756.62	-158.24	0.76283	0	-0.341424	-0.214894	5.14643	-0.4636	0	0	0	0	0	0	0	0	0
2.38	-51.4344	1744.98	-162.164	0.747603	0	-0.341078	-0.179907	6.10358	-0.567217	0	0	0	0	0	0	0	0	0
2.39	-29.7826	1705.78	-160.313	0.732873	0	-0.341138	-0.109945	6.297	-0.591809	0	0	0	0	0	0	0	0	0
2.4	0.743981	1643.01	-155.864	0.71601	0	-0.340942	0.0028282	6.2458	-0.592509	0	0	0	0	0	0	0	0	0
2.41	34.6023	1555.01	-148.604	0.698214	0	-0.340945	0.129796	5.83298	-0.557427	0	0	0	0	0	0	0	0	0
2.42	65.5005	1443.59	-138.408	0.680396	0	-0.341035	0.235045	5.18027	-0.496669	0	0	0	0	0	0	0	0	0
2.43	91.3914	1312.45	-125.573	0.662543	0	-0.341197	0.307652	4.41812	-0.422719	0	0	0	0	0	0	0	0	0
2.44	111.979	1166.61	-111.085	0.644296	0	-0.34151	0.350888	3.65561	-0.348088	0	0	0	0	0	0	0	0	0
2.45	125.131	1012.4	-95.6383	0.625993	0	-0.341976	0.366436	2.96471	-0.280068	0	0	0	0	0	0	0	0	0
2.46	129.533	857.765	-79.6873	0.607959	0	-0.342442	0.358934	2.37685	-0.220812	0	0	0	0	0	0	0	0	0
2.47	127.427	710.166	-64.0651	0.590201	0	-0.342574	0.339042	1.88953	-0.170457	0	0	0	0	0	0	0	0	0
2.48	119.539	573.876	-49.7788	0.573312	0	-0.342188	0.308809	1.4825	-0.128595	0	0	0	0	0	0	0	0	0
2.49	104.848	451.554	-37.3319	0.557612	0	-0.341366	0.262679	1.13129	-0.093529	0	0	0	0	0	0	0	0	0
2.5	85.1706	345.938	-26.5741	0.542778	0	-0.340023	0.200641	0.814946	-0.0626022	0	0	0	0	0	0	0	0	0
2.51	64.6658	258.552	-17.2645	0.52937	0	-0.33784	0.131448	0.525567	-0.0350941	0	0	0	0	0	0	0	0	0
2.52	45.7357	187.312	-9.66591	0.518822	0	-0.33489	0.0672293	0.27534	-0.0142084	0	0	0	0	0	0	0	0	0
2.53	29.6283	129.072	-4.37735	0.513016	0	-0.331403	0.0204255	0.088981	-0.00301771	0	0	0	0	0	0	0	0	0
2.54	17.5572	82.7649	-1.57674	0.510926	0	-0.32664	-0.00255954	-0.0120657	0.00022986	0	0	0	0	0	0	0	0	0
2.55	9.87724	48.0491	-0.612996	0.506208	0	-0.319247	-0.00464407	-0.0225917	0.000288217	0	0	0	0	0	0	0	0	0
2.56	4.94117	23.7918	-0.448726	0.500308	0	-0.307656	0.00922277	0.0444078	-0.000837555	0	0	0	0	0	0	0	0	0
2.57	1.49061	9.27974	-0.424564	0.50603	0	-0.286539	0.0275509	0.171517	-0.00784723	0	0	0	0	0	0	0	0	0
2.58	-0.254484	3.06038	-0.424107	-0.000463401	0	-0.000165971	2.84965e-21	-3.42694e-20	4.74906e-21	0	0	0	0	0	0	0	0	0
2.59	-0.683732	1.28706	-0.460006	-0.000463401	0	-0.000165971	1.66574e-20	-3.1356e-20	1.12069e-20	0	0	0	0	0	0	0	0	0
2.6	-0.504399	0.65809	-0.485977	-0.000463401	0	-0.000165971	-9.67071e-21	1.26174e-20	-9.31751e-21	-5.12351	9.27151	4.98521	0.770797	0	-0.755337	-1.36284	2.4662	1.32605
2.61	-0.316591	0.239598	-0.547469	-0.000463401	0	-0.000165971	1.09963e-20	-8.32209e-21	1.90155e-20	-20.3211	40.4246	12.8641	0.893079	0	-0.650918	-1.66369	3.30956	1.05318
2.62	-0.614884	-0.133268	-0.767136	-0.000463401	0	-0.000165971	1.50096e-21	3.25312e-22	1.87261e-21	-52.4973	123.809	27.6042	0.917076	0	-0.620884	-1.53947	3.63067	0.809488
2.63	-1.80312	-0.949638	-1.11862	-0.000463401	0	-0.000165971	-4.8778e-20	-2.56896e-20	-3.02611e-20	-85.4246	270.925	48.1647	0.920409	0	-0.609079	-1.10053	3.49034	0.620507
2.64	-3.7281	-1.72286	-1.25336	-0.000463401	0	-0.000165971	-0	-0	-0	-90.3104	460.223	68.287	0.909295	0	-0.602209	-0.585116	2.98176	0.442427
2.65	-3.4457	0.126399	-0.701253	-0.000463401	0	-0.000165971	2.75138e-21	-1.00929e-22	5.59947e-22	-77.0197	674.697	82.4486	0.885764	0	-0.598292	-0.263179	2.30546	0.28173
